<?xml version="1.0" standalone="no"?>
<!DOCTYPE svg PUBLIC "-//W3C//DTD SVG 20010904//EN"
 "http://www.w3.org/TR/2001/REC-SVG-20010904/DTD/svg10.dtd">
<svg version="1.0" xmlns="http://www.w3.org/2000/svg"
 width="187.000000pt" height="49.000000pt" viewBox="0 0 187.000000 49.000000"
 preserveAspectRatio="xMidYMid meet">
<metadata>
Created by potrace 1.10, written by Peter Selinger 2001-2011
</metadata>
<g transform="translate(0.000000,49.000000) scale(0.100000,-0.100000)"
fill="#000000" stroke="none">
<path d="M360 250 l0 -130 28 0 c26 0 27 2 24 45 l-4 45 41 0 c55 0 91 34 91
85 0 25 -8 44 -25 60 -21 22 -33 25 -90 25 l-65 0 0 -130z m108 78 c17 -17 15
-65 -4 -72 -42 -16 -54 -8 -54 39 0 40 2 45 23 45 13 0 28 -5 35 -12z"/>
<path d="M1124 361 c-38 -23 -44 -32 -55 -80 -18 -79 26 -148 101 -158 105
-14 176 99 125 197 -30 58 -112 77 -171 41z m110 -53 c37 -52 9 -138 -44 -138
-62 0 -90 90 -44 141 24 26 69 24 88 -3z"/>
<path d="M1350 251 l0 -131 30 0 c29 0 30 2 30 45 0 45 0 45 36 45 26 0 43 8
66 30 26 27 30 36 25 67 -9 56 -27 67 -112 71 l-75 4 0 -131z m111 79 c21 -12
25 -50 7 -68 -7 -7 -22 -12 -35 -12 -21 0 -23 5 -23 45 0 48 11 56 51 35z"/>
<path d="M197 279 c-53 -27 -77 -45 -75 -55 2 -11 145 -84 165 -84 2 0 3 9 3
19 0 15 -15 25 -62 43 l-62 22 62 28 c46 21 62 33 62 48 0 26 -2 26 -93 -21z"/>
<path d="M1590 297 c0 -18 11 -27 61 -46 l60 -25 -58 -21 c-44 -17 -59 -27
-61 -44 -3 -21 -2 -21 30 -8 112 47 138 61 138 71 0 6 -38 31 -85 54 -82 41
-85 41 -85 19z"/>
<path d="M588 293 c-11 -3 -18 -14 -18 -30 0 -21 3 -23 14 -14 18 15 68 10 74
-6 2 -9 -8 -13 -30 -13 -43 0 -78 -25 -78 -55 0 -48 60 -73 94 -39 15 14 16
14 16 0 0 -10 9 -16 25 -16 24 0 25 2 25 70 0 57 -4 74 -20 90 -19 19 -60 24
-102 13z m68 -118 c-3 -8 -17 -15 -31 -15 -35 0 -30 32 5 40 27 7 35 -2 26
-25z"/>
<path d="M772 284 c-36 -25 -26 -65 21 -87 51 -26 48 -41 -9 -34 -42 4 -45 3
-42 -17 2 -17 11 -22 46 -24 92 -7 126 64 50 101 -50 24 -49 41 0 34 36 -4 39
-3 34 19 -4 20 -10 24 -41 24 -20 0 -47 -7 -59 -16z"/>
<path d="M921 281 c-35 -35 -23 -69 30 -86 54 -18 50 -39 -5 -33 -44 5 -47 4
-44 -16 2 -17 11 -22 43 -24 57 -3 90 16 90 53 0 25 -7 33 -37 48 -48 24 -49
40 -3 35 32 -4 36 -2 33 16 -4 31 -79 35 -107 7z"/>
</g>
</svg>
